<?xml version="1.0" encoding="utf-8"?>
<svg version="1.1"
	 xmlns="http://www.w3.org/2000/svg" xmlns:xlink="http://www.w3.org/1999/xlink" x="0px" y="0px" viewBox="0 0 27.6 27.7"
	 style="enable-background:new 0 0 27.6 27.7;" xml:space="preserve">
<style type="text/css">
	.st0{fill-rule:evenodd;clip-rule:evenodd;fill:#FFFFFF;}
</style>
<title></title>
<desc></desc>
<g id="black">
	<g id="linkedin" transform="translate(16.000000, 17.000000)">
		<path class="st0" d="M-10.3,10.7V-7.6H-16v18.3H-10.3z M-10.3-14.1c0-1.6-1.1-2.9-2.9-2.9c-1.8,0-2.9,1.2-2.9,2.9
			c0,1.6,1.1,2.9,2.9,2.9h0C-11.5-11.2-10.3-12.5-10.3-14.1z M-1.1,10.7V0.2c0-0.6,0-1.1,0.2-1.5c0.4-1.1,1.5-2.3,3.2-2.3
			c2.2,0,3.7,1.3,3.7,3.8v10.4h5.7V0c0-5.7-3.1-8.4-7.1-8.4c-3.3,0-4.8,1.9-5.6,3.1l0-2.4h-5.7c0.1,1.8,0,18.4,0,18.4H-1.1z"/>
	</g>
</g>
</svg>
